<svg
            class="fill-current dark:text-pink-700"
            xmlns="http://www.w3.org/2000/svg"
            xmlns:xlink="http://www.w3.org/1999/xlink"
            width="76"
            height="76"
            viewBox="0 0 389.553979084877 206.7044267027995"
          >
            <defs>
              <rect
                id="path_0"
                x="0"
                y="0"
                width="389.553979084877"
                height="206.7044267027995"
              />
            </defs>
            <g
              opacity="1"
              transform="translate(0 0)  rotate(0 194.7769895424385 103.35221335139975)"
            >
              <mask id="bg-mask-0" fill="white">
                <use xlink:href="#path_0"></use>
              </mask>
              <g mask="url(#bg-mask-0)">
                <path
                  id="分组 1"
                  fill-rule="evenodd"
                  style="fill: #fb7299"
                  transform="translate(0 6.831440862955759)  rotate(0 96.4324951171875 93.53790283203125)"
                  opacity="1"
                  d="M54.2957 132.798C51.3353 123.938 48.4691 115.044 45.9515 106.027C42.9054 95.2544 40.1504 84.1666 37.2069 73.1457C37.036 72.6652 37.1657 72.1945 37.0618 71.9024C40.4548 70.9079 43.7903 70.0505 47.022 68.901C60.8835 64.3952 73.6334 57.5996 84.5108 47.4791C89.8193 42.4705 94.8114 37.1393 98.6304 30.7182C101.854 25.3686 101.268 20.4082 96.402 14.4864C93.8069 10.7712 90.022 8.45572 85.8386 6.9294C75.8861 3.02915 65.9781 0.0895405 55.6116 0.00887299C48.2876 -0.0819893 41.1168 0.526255 33.9809 1.76955C24.7281 3.44734 15.5772 5.94862 6.31628 8.1706C4.38457 8.52866 2.73602 9.44405 0.813976 10.1277C-0.0622482 10.4394 -0.158499 11.0043 0.183323 11.9653C1.63002 16.3012 2.87993 20.9194 4.21464 25.5074C5.82211 31.3994 7.30185 37.2307 8.73031 43.1864C10.7127 51.5348 12.6005 59.5878 14.5829 67.9362C16.7026 76.6709 18.6159 85.3623 20.6988 93.9934C22.7481 102.53 24.943 110.909 26.7892 119.412C28.8653 129.128 30.9894 138.711 33.051 148.655C35.6187 160.021 37.6075 171.7 38.7892 183.348C38.7905 183.889 39.5657 184.695 39.93 184.884C49.8728 185.445 59.7737 186.126 69.7834 186.875C73.0575 187.218 73.4923 187.604 72.0647 183.591C66.0426 166.66 60.054 149.823 54.2957 132.798Z M47.1716 49.7332C51.4375 46.1992 67.5163 27.4624 67.8523 25.6105C57.4628 23.0887 47.1016 20.442 36.3685 17.8533C40.0667 28.6958 43.6432 39.264 47.1716 49.7332Z M132.369 16.6286C140.719 65.1586 144.429 113.789 148.789 162.009C153.889 162.519 158.529 162.819 163.359 163.329C164.289 163.529 164.749 163.329 164.749 162.309L164.289 156.729C163.919 150.029 163.269 143.529 162.619 137.139C162.149 131.249 161.689 125.049 161.039 119.169C160.389 111.039 159.649 102.919 158.999 94.6986C158.349 87.1886 158.069 79.7786 157.609 72.2586C156.959 61.9086 156.209 51.5486 155.559 41.1986L154.169 18.2486C153.989 15.4086 152.969 14.6986 150.279 14.8986C147.029 15.2086 143.869 15.4086 140.629 15.6086C137.839 15.9186 135.059 16.3186 132.369 16.6286Z M129.028 89.8208C126.428 90.1308 123.648 90.1308 120.958 90.5308C117.248 91.0408 113.538 91.7508 109.638 92.2608C114.278 118.761 118.918 144.651 123.738 170.941C129.308 170.131 134.598 169.421 139.978 168.711C139.788 166.681 139.508 164.651 139.328 162.821C138.588 156.121 137.838 149.621 137.198 143.221C136.548 137.131 135.988 131.141 135.338 125.051C134.688 118.151 134.128 111.141 133.298 104.241C132.828 99.9808 132.188 95.9208 131.628 91.8508C131.438 90.3308 130.518 89.6208 129.028 89.8208Z M169.945 93.2759C170.135 93.9859 170.135 94.4959 170.135 95.0059C170.785 103.526 171.525 111.956 172.175 120.286C172.825 128.406 173.565 136.726 174.215 144.846C174.955 153.686 175.605 162.516 176.345 171.346C176.345 171.856 177.085 172.666 177.555 172.666C182.475 172.866 187.665 172.666 192.865 172.666C192.675 171.546 192.675 170.836 192.675 170.336C192.495 160.286 192.215 150.536 192.025 140.486C191.845 128.096 192.025 115.506 192.025 103.126C192.025 100.386 191.845 97.8459 191.745 95.1059C191.745 93.8859 191.095 92.8659 189.895 92.8659C185.065 92.6659 180.155 92.5659 175.325 92.5659C173.475 92.5659 171.805 92.8659 169.945 93.2759Z M127.542 51.9594C127.362 50.7394 126.892 50.1294 125.972 50.1294C123.002 50.1294 119.932 50.1294 116.782 50.3294C117.992 60.6894 119.102 70.6394 120.312 80.8894C123.742 80.5894 126.802 80.4894 130.052 80.0794C129.122 70.4294 128.382 61.2994 127.542 51.9594Z M191.281 55.8196C191.281 53.9896 190.631 53.4796 189.241 53.4796L181.171 53.4796L181.171 83.1196C184.701 83.3296 188.041 83.4296 191.281 83.6296L191.281 81.5996L191.281 55.8196Z M116.409 79.2713C115.949 73.9913 115.299 68.9113 114.839 63.6313C114.559 60.2813 114.189 57.0313 113.909 53.5813C113.719 52.7713 114.089 51.5513 112.789 51.7513C109.829 52.0613 106.949 52.7713 103.979 53.0713C105.649 63.1213 107.229 72.8713 108.899 82.7213L116.409 81.3013L116.409 79.2713Z M177.834 67.5881C177.834 63.5281 177.644 59.2681 177.834 55.2081C177.834 53.6781 177.364 53.3781 176.164 53.3781L167.904 53.3781C168.644 63.9381 169.294 73.8881 170.034 83.7381C172.544 83.5281 175.044 83.3281 177.834 83.0181L177.834 67.5881Z "
                />
                <path
                  id="分组 2"
                  fill-rule="evenodd"
                  style="fill: #fb7299"
                  transform="translate(197.11730094299133 0)  rotate(0 96.21833907094285 95.35011557354268)"
                  opacity="1"
                  d="M18.66 156.76C19.31 162.85 19.87 168.84 20.33 174.93C20.61 179.7 20.98 184.47 21.07 189.04C21.07 190.06 21.35 190.56 22.28 190.56C24.32 190.56 26.18 190.87 28.12 190.56C37.59 189.55 47.05 188.84 56.33 187.32C63.47 186.1 70.43 184.27 77.3 181.73C87.04 178.18 95.39 172.09 103.46 165.08C106.89 162.24 109.68 158.79 110.88 154.42C113.57 147.32 112.46 142.44 107.64 138.48C101.88 133.71 95.39 130.36 88.71 127.42C75.07 121.53 60.78 119.4 46.22 119.8C42.78 119.8 39.35 120.11 35.82 120.31C35.82 120.01 35.55 119.6 35.55 119.09C34.62 107.72 33.51 96.35 32.76 85.18C32.11 75.84 31.84 66.5 31.65 57.16C31.37 39.19 31.37 21.33 31.37 3.36C31.37 -0.91 31.09 -0.4 28.12 1.02C18.94 5.08 9.85 9.04 0.66 12.9C0.38 13.1 -0.08 14.12 0.01 14.63C2.8 26 4.84 37.67 6.23 49.25C7.62 59.3 8.83 69.04 10.13 78.89C11.24 87.52 11.98 96.15 12.91 104.88C13.84 113.71 14.95 122.54 15.88 131.48C16.81 140.01 17.73 148.23 18.66 156.76Z M79.1502 151.58C78.0402 150.06 55.4002 140.21 50.0202 138.89C51.4102 149.85 52.8002 160.92 54.2002 172.29C62.7302 165.29 70.9002 158.38 79.1502 151.58Z M157.184 79.09C156.534 68.7401 155.784 58.3801 155.134 48.03L153.744 25.08C153.564 22.24 152.544 21.53 149.854 21.73C146.604 22.04 143.444 22.24 140.204 22.44C137.414 22.75 134.634 23.15 131.944 23.46C140.294 71.9901 144.004 120.62 148.364 168.84C153.464 169.35 158.104 169.65 162.934 170.16C163.864 170.36 164.324 170.16 164.324 169.14L163.864 163.56C163.494 156.86 162.844 150.36 162.194 143.97C161.724 138.08 161.264 131.88 160.614 126C159.964 117.87 159.224 109.75 158.574 101.53C157.924 94.0201 157.644 86.6101 157.184 79.09Z M120.534 97.3623C116.824 97.8723 113.114 98.5823 109.214 99.0923C113.854 125.592 118.493 151.482 123.313 177.772C128.883 176.962 134.173 176.252 139.553 175.542C139.363 173.512 139.083 171.482 138.904 169.652C138.163 162.952 137.413 156.452 136.773 150.052C136.124 143.962 135.564 137.972 134.913 131.882C134.264 124.982 133.704 117.972 132.874 111.072C132.404 106.812 131.764 102.752 131.204 98.6823C131.014 97.1623 130.094 96.4523 128.604 96.6523C126.004 96.9622 123.224 96.9622 120.534 97.3623Z M189.47 99.6974C184.64 99.4974 179.73 99.3974 174.9 99.3974C173.05 99.3974 171.38 99.6974 169.52 100.107C169.71 100.817 169.71 101.327 169.71 101.837C170.36 110.357 171.1 118.787 171.75 127.117C172.4 135.237 173.14 143.557 173.79 151.677C174.53 160.517 175.18 169.347 175.92 178.177C175.92 178.687 176.66 179.497 177.13 179.497C182.05 179.697 187.24 179.497 192.44 179.497C192.25 178.377 192.25 177.667 192.25 177.167C192.07 167.117 191.79 157.367 191.6 147.317C191.42 134.927 191.6 122.337 191.6 109.957C191.6 107.217 191.42 104.677 191.32 101.937C191.32 100.717 190.67 99.6974 189.47 99.6974Z M127.118 58.7908C126.938 57.5708 126.468 56.9608 125.548 56.9608C122.578 56.9608 119.508 56.9608 116.358 57.1608C117.568 67.5208 118.678 77.4708 119.888 87.7208C123.318 87.4208 126.378 87.3208 129.628 86.9108C128.698 77.2608 127.958 68.1308 127.118 58.7908Z M190.856 62.6511C190.856 60.8211 190.206 60.3111 188.816 60.3111L180.746 60.3111L180.746 89.9511C184.276 90.1611 187.616 90.2611 190.856 90.4611L190.856 88.4311L190.856 62.6511Z M115.984 86.1027C115.524 80.8227 114.874 75.7427 114.414 70.4627C114.134 67.1127 113.764 63.8627 113.484 60.4127C113.294 59.6027 113.664 58.3827 112.364 58.5827C109.404 58.8927 106.524 59.6027 103.554 59.9027C105.224 69.9527 106.804 79.7027 108.474 89.5527L115.984 88.1327L115.984 86.1027Z M177.409 74.4195C177.409 70.3595 177.219 66.0995 177.409 62.0395C177.409 60.5095 176.939 60.2095 175.739 60.2095L167.479 60.2095C168.219 70.7695 168.869 80.7195 169.609 90.5695C172.119 90.3595 174.619 90.1595 177.409 89.8495L177.409 74.4195Z "
                />
              </g>
            </g>
          </svg>